# xmcd
#
# Track frame offsets:
#	150
#	14868
#	25694
#	39171
#	48575
#	61121
#	74596
#	89425
#	99031
#	109819
#	120922
#	131061
#	143817
#	156725
#	169312
#
# Disc length: 2454 seconds
#
# Revision: 1
# Processed by: cddbd v1.5.2PL0 Copyright (c) Steve Scherf et al.
# Submitted via: audiograbber 1.83.01
#
DISCID=ce09940f
DTITLE=Die Kasermandln - Das Beste - CD 2
DYEAR=2016
DGENRE=Volksmusik
TTITLE0=Bubi, Bubi noch einmal
TTITLE1=Hoam nach Tirol
TTITLE2=Kasermandl
TTITLE3=Wenn ich auf hohen Bergen steh´
TTITLE4=Kamerad der Berge
TTITLE5=Mein Schatz, wir wandern
TTITLE6=S´Zeisele
TTITLE7=Österreich, mein Österreich
TTITLE8=Frisch, froh und frei
TTITLE9=Zillertaler Hochzeitspolka
TTITLE10=A bisserl Z´friedenheit
TTITLE11=Wir feiern Feste
TTITLE12=Franzl Walzer
TTITLE13=Wo der Almrausch schon blüaht
TTITLE14=Karwendellied
EXTD=
EXTT0=
EXTT1=
EXTT2=
EXTT3=
EXTT4=
EXTT5=
EXTT6=
EXTT7=
EXTT8=
EXTT9=
EXTT10=
EXTT11=
EXTT12=
EXTT13=
EXTT14=
PLAYORDER=
